<svg xmlns="http://www.w3.org/2000/svg" xmlns:xlink="http://www.w3.org/1999/xlink" version="1.1" data-diagram-type="CLASS" style="width:1024px;height:605px;background:#FFFFFF;" width="1024px" height="605px" viewBox="0 0 1024 605" zoomAndPan="magnify" preserveAspectRatio="none" contentStyleType="text/css"><?plantuml 1.2026.7beta8?><defs/><g font-family="sans-serif" lengthAdjust="spacing"><!--class EModelElement--><g class="entity" data-qualified-name="EModelElement" id="ent0001" data-source-line="6"><rect x="536.66" y="525.81" width="244.101" height="64.297" fill="#F1F1F1" style="stroke:#181818;stroke-width:0.5;" rx="2.5" ry="2.5"/><ellipse cx="600.039" cy="541.81" rx="11" ry="11" fill="#A9DCDF" style="stroke:#181818;stroke-width:1;"/><path d="M600.149,537.154 L598.993,542.232 L601.321,542.232 L600.149,537.154 Z M598.664,534.919 L601.649,534.919 L605.008,547.31 L602.555,547.31 L601.789,544.248 L598.508,544.248 L597.758,547.31 L595.321,547.31 L598.664,534.919 Z " fill="#000"/><text x="620.539" y="546.657" fill="#000" font-size="14" textLength="108.842" font-style="italic">EModelElement</text><line x1="537.66" y1="557.81" x2="779.761" y2="557.81" style="stroke:#181818;stroke-width:0.5;"/><text x="542.66" y="574.805" fill="#000" font-size="14" textLength="232.101">eAnnotations : EAnnotation [0..*]</text><line x1="537.66" y1="582.107" x2="779.761" y2="582.107" style="stroke:#181818;stroke-width:0.5;"/></g><!--class EAnnotation--><g class="entity" data-qualified-name="EAnnotation" id="ent0002" data-source-line="10"><rect x="7" y="344.85" width="235.419" height="80.594" fill="#F1F1F1" style="stroke:#181818;stroke-width:0.5;" rx="2.5" ry="2.5"/><ellipse cx="77.649" cy="360.85" rx="11" ry="11" fill="#ADD1B2" style="stroke:#181818;stroke-width:1;"/><path d="M80.618,366.491 Q80.04,366.788 79.399,366.928 Q78.759,367.084 78.056,367.084 Q75.556,367.084 74.228,365.444 Q72.915,363.788 72.915,360.663 Q72.915,357.538 74.228,355.881 Q75.556,354.225 78.056,354.225 Q78.759,354.225 79.399,354.381 Q80.056,354.538 80.618,354.834 L80.618,357.553 Q79.993,356.975 79.399,356.709 Q78.806,356.428 78.181,356.428 Q76.837,356.428 76.149,357.506 Q75.462,358.569 75.462,360.663 Q75.462,362.756 76.149,363.834 Q76.837,364.897 78.181,364.897 Q78.806,364.897 79.399,364.631 Q79.993,364.35 80.618,363.772 L80.618,366.491 Z " fill="#000"/><text x="98.149" y="365.697" fill="#000" font-size="14" textLength="85.62">EAnnotation</text><line x1="8" y1="376.85" x2="241.419" y2="376.85" style="stroke:#181818;stroke-width:0.5;"/><text x="13" y="393.845" fill="#000" font-size="14" textLength="111.043">source : EString</text><text x="13" y="410.142" fill="#000" font-size="14" textLength="223.419">details : Map&lt;EString, EString></text><line x1="8" y1="417.444" x2="241.419" y2="417.444" style="stroke:#181818;stroke-width:0.5;"/></g><!--class EPackage--><g class="entity" data-qualified-name="EPackage" id="ent0003" data-source-line="15"><rect x="877.55" y="147.59" width="132.326" height="96.891" fill="#F1F1F1" style="stroke:#181818;stroke-width:0.5;" rx="2.5" ry="2.5"/><ellipse cx="907.209" cy="163.59" rx="11" ry="11" fill="#ADD1B2" style="stroke:#181818;stroke-width:1;"/><path d="M910.178,169.231 Q909.599,169.528 908.959,169.668 Q908.318,169.824 907.615,169.824 Q905.115,169.824 903.787,168.184 Q902.474,166.528 902.474,163.403 Q902.474,160.278 903.787,158.621 Q905.115,156.965 907.615,156.965 Q908.318,156.965 908.959,157.121 Q909.615,157.278 910.178,157.574 L910.178,160.293 Q909.553,159.715 908.959,159.449 Q908.365,159.168 907.74,159.168 Q906.396,159.168 905.709,160.246 Q905.021,161.309 905.021,163.403 Q905.021,165.496 905.709,166.574 Q906.396,167.637 907.74,167.637 Q908.365,167.637 908.959,167.371 Q909.553,167.09 910.178,166.512 L910.178,169.231 Z " fill="#000"/><text x="924.466" y="168.437" fill="#000" font-size="14" textLength="67.751">EPackage</text><line x1="878.55" y1="179.59" x2="1008.876" y2="179.59" style="stroke:#181818;stroke-width:0.5;"/><text x="883.55" y="196.585" fill="#000" font-size="14" textLength="103.947">name : EString</text><text x="883.55" y="212.882" fill="#000" font-size="14" textLength="104.515">nsURI : EString</text><text x="883.55" y="229.179" fill="#000" font-size="14" textLength="120.326">nsPrefix : EString</text><line x1="878.55" y1="236.481" x2="1008.876" y2="236.481" style="stroke:#181818;stroke-width:0.5;"/></g><!--class EClassifier--><g class="entity" data-qualified-name="EClassifier" id="ent0004" data-source-line="21"><rect x="730.74" y="353" width="115.947" height="64.297" fill="#F1F1F1" style="stroke:#181818;stroke-width:0.5;" rx="2.5" ry="2.5"/><ellipse cx="750.777" cy="369" rx="11" ry="11" fill="#A9DCDF" style="stroke:#181818;stroke-width:1;"/><path d="M750.886,364.344 L749.73,369.422 L752.058,369.422 L750.886,364.344 Z M749.402,362.109 L752.386,362.109 L755.745,374.5 L753.292,374.5 L752.527,371.438 L749.245,371.438 L748.495,374.5 L746.058,374.5 L749.402,362.109 Z " fill="#000"/><text x="765.896" y="373.847" fill="#000" font-size="14" textLength="72.755" font-style="italic">EClassifier</text><line x1="731.74" y1="385" x2="845.687" y2="385" style="stroke:#181818;stroke-width:0.5;"/><text x="736.74" y="401.995" fill="#000" font-size="14" textLength="103.947">name : EString</text><line x1="731.74" y1="409.297" x2="845.687" y2="409.297" style="stroke:#181818;stroke-width:0.5;"/></g><!--class EClass--><g class="entity" data-qualified-name="EClass" id="ent0005" data-source-line="25"><rect x="408.34" y="155.74" width="202.736" height="80.594" fill="#F1F1F1" style="stroke:#181818;stroke-width:0.5;" rx="2.5" ry="2.5"/><ellipse cx="482.619" cy="171.74" rx="11" ry="11" fill="#ADD1B2" style="stroke:#181818;stroke-width:1;"/><path d="M485.588,177.381 Q485.01,177.678 484.369,177.818 Q483.729,177.974 483.026,177.974 Q480.526,177.974 479.197,176.334 Q477.885,174.678 477.885,171.553 Q477.885,168.428 479.197,166.771 Q480.526,165.115 483.026,165.115 Q483.729,165.115 484.369,165.271 Q485.026,165.428 485.588,165.724 L485.588,168.443 Q484.963,167.865 484.369,167.599 Q483.776,167.318 483.151,167.318 Q481.807,167.318 481.119,168.396 Q480.432,169.459 480.432,171.553 Q480.432,173.646 481.119,174.724 Q481.807,175.787 483.151,175.787 Q483.776,175.787 484.369,175.521 Q484.963,175.24 485.588,174.662 L485.588,177.381 Z " fill="#000"/><text x="503.119" y="176.587" fill="#000" font-size="14" textLength="45.678">EClass</text><line x1="409.34" y1="187.74" x2="610.076" y2="187.74" style="stroke:#181818;stroke-width:0.5;"/><text x="414.34" y="204.735" fill="#000" font-size="14" textLength="136.924">abstract : EBoolean</text><text x="414.34" y="221.032" fill="#000" font-size="14" textLength="190.736">eSuperTypes : EClass [0..*]</text><line x1="409.34" y1="228.334" x2="610.076" y2="228.334" style="stroke:#181818;stroke-width:0.5;"/></g><!--class EDataType--><g class="entity" data-qualified-name="EDataType" id="ent0006" data-source-line="30"><rect x="734.4" y="172.04" width="108.61" height="48" fill="#F1F1F1" style="stroke:#181818;stroke-width:0.5;" rx="2.5" ry="2.5"/><ellipse cx="749.4" cy="188.04" rx="11" ry="11" fill="#ADD1B2" style="stroke:#181818;stroke-width:1;"/><path d="M752.369,193.681 Q751.791,193.978 751.15,194.118 Q750.509,194.274 749.806,194.274 Q747.306,194.274 745.978,192.634 Q744.666,190.978 744.666,187.853 Q744.666,184.728 745.978,183.071 Q747.306,181.415 749.806,181.415 Q750.509,181.415 751.15,181.571 Q751.806,181.728 752.369,182.024 L752.369,184.743 Q751.744,184.165 751.15,183.899 Q750.556,183.618 749.931,183.618 Q748.588,183.618 747.9,184.696 Q747.213,185.759 747.213,187.853 Q747.213,189.946 747.9,191.024 Q748.588,192.087 749.931,192.087 Q750.556,192.087 751.15,191.821 Q751.744,191.54 752.369,190.962 L752.369,193.681 Z " fill="#000"/><text x="763.4" y="192.887" fill="#000" font-size="14" textLength="76.61">EDataType</text><line x1="735.4" y1="204.04" x2="842.01" y2="204.04" style="stroke:#181818;stroke-width:0.5;"/><line x1="735.4" y1="212.04" x2="842.01" y2="212.04" style="stroke:#181818;stroke-width:0.5;"/></g><!--class EStructuralFeature--><g class="entity" data-qualified-name="EStructuralFeature" id="ent0007" data-source-line="32"><rect x="531.65" y="344.85" width="164.111" height="80.594" fill="#F1F1F1" style="stroke:#181818;stroke-width:0.5;" rx="2.5" ry="2.5"/><ellipse cx="546.65" cy="360.85" rx="11" ry="11" fill="#A9DCDF" style="stroke:#181818;stroke-width:1;"/><path d="M546.759,356.194 L545.603,361.272 L547.931,361.272 L546.759,356.194 Z M545.275,353.959 L548.259,353.959 L551.619,366.35 L549.166,366.35 L548.4,363.288 L545.119,363.288 L544.369,366.35 L541.931,366.35 L545.275,353.959 Z " fill="#000"/><text x="560.65" y="365.697" fill="#000" font-size="14" textLength="132.111" font-style="italic">EStructuralFeature</text><line x1="532.65" y1="376.85" x2="694.761" y2="376.85" style="stroke:#181818;stroke-width:0.5;"/><text x="537.65" y="393.845" fill="#000" font-size="14" textLength="124.031">lowerBound : EInt</text><text x="537.65" y="410.142" fill="#000" font-size="14" textLength="126.772">upperBound : EInt</text><line x1="532.65" y1="417.444" x2="694.761" y2="417.444" style="stroke:#181818;stroke-width:0.5;"/></g><!--class EAttribute--><g class="entity" data-qualified-name="EAttribute" id="ent0008" data-source-line="37"><rect x="631.09" y="15.15" width="207.241" height="64.297" fill="#F1F1F1" style="stroke:#181818;stroke-width:0.5;" rx="2.5" ry="2.5"/><ellipse cx="695.006" cy="31.15" rx="11" ry="11" fill="#ADD1B2" style="stroke:#181818;stroke-width:1;"/><path d="M697.975,36.791 Q697.397,37.087 696.756,37.228 Q696.115,37.384 695.412,37.384 Q692.912,37.384 691.584,35.744 Q690.272,34.087 690.272,30.962 Q690.272,27.837 691.584,26.181 Q692.912,24.525 695.412,24.525 Q696.115,24.525 696.756,24.681 Q697.412,24.837 697.975,25.134 L697.975,27.853 Q697.35,27.275 696.756,27.009 Q696.162,26.728 695.537,26.728 Q694.194,26.728 693.506,27.806 Q692.819,28.869 692.819,30.962 Q692.819,33.056 693.506,34.134 Q694.194,35.197 695.537,35.197 Q696.162,35.197 696.756,34.931 Q697.35,34.65 697.975,34.072 L697.975,36.791 Z " fill="#000"/><text x="715.506" y="35.997" fill="#000" font-size="14" textLength="70.909">EAttribute</text><line x1="632.09" y1="47.15" x2="837.331" y2="47.15" style="stroke:#181818;stroke-width:0.5;"/><text x="637.09" y="64.145" fill="#000" font-size="14" textLength="195.241">eAttributeType : EDataType</text><line x1="632.09" y1="71.447" x2="837.331" y2="71.447" style="stroke:#181818;stroke-width:0.5;"/></g><!--class EReference--><g class="entity" data-qualified-name="EReference" id="ent0009" data-source-line="41"><rect x="363.87" y="7" width="185.681" height="80.594" fill="#F1F1F1" style="stroke:#181818;stroke-width:0.5;" rx="2.5" ry="2.5"/><ellipse cx="412.32" cy="23" rx="11" ry="11" fill="#ADD1B2" style="stroke:#181818;stroke-width:1;"/><path d="M415.288,28.641 Q414.71,28.938 414.07,29.078 Q413.429,29.234 412.726,29.234 Q410.226,29.234 408.898,27.594 Q407.585,25.938 407.585,22.813 Q407.585,19.688 408.898,18.031 Q410.226,16.375 412.726,16.375 Q413.429,16.375 414.07,16.531 Q414.726,16.688 415.288,16.984 L415.288,19.703 Q414.663,19.125 414.07,18.859 Q413.476,18.578 412.851,18.578 Q411.507,18.578 410.82,19.656 Q410.132,20.719 410.132,22.813 Q410.132,24.906 410.82,25.984 Q411.507,27.047 412.851,27.047 Q413.476,27.047 414.07,26.781 Q414.663,26.5 415.288,25.922 L415.288,28.641 Z " fill="#000"/><text x="432.82" y="27.847" fill="#000" font-size="14" textLength="80.281">EReference</text><line x1="364.87" y1="39" x2="548.551" y2="39" style="stroke:#181818;stroke-width:0.5;"/><text x="369.87" y="55.995" fill="#000" font-size="14" textLength="167.733">containment : EBoolean</text><text x="369.87" y="72.292" fill="#000" font-size="14" textLength="173.681">eReferenceType : EClass</text><line x1="364.87" y1="79.594" x2="548.551" y2="79.594" style="stroke:#181818;stroke-width:0.5;"/></g><g class="entity" data-qualified-name="GMN10" id="ent0011" data-source-line="47"><path d="M277.06,304.49 L277.06,465.818 L496.367,465.818 L496.367,314.49 L486.367,304.49 L277.06,304.49" style="stroke:#181818;stroke-width:0.5;" fill="#FEFFDD"/><path d="M486.367,304.49 L486.367,314.49 L496.367,314.49 L486.367,304.49" style="stroke:#181818;stroke-width:1;" fill="#FEFFDD"/><text x="283.06" y="321.557" fill="#000" font-size="13" textLength="150.205">Ejemplo Model2Blockly</text><text x="283.06" y="336.69" fill="#000" font-size="13"> </text><text x="283.06" y="351.823" fill="#000" font-size="13" textLength="120.371">source = "blockly"</text><text x="283.06" y="366.955" fill="#000" font-size="13" textLength="96.18">colour = "260"</text><text x="283.06" y="382.088" fill="#000" font-size="13" textLength="127.397">category = "Pages"</text><text x="283.06" y="397.221" fill="#000" font-size="13" textLength="198.307">tooltip = "A navigable page..."</text><text x="283.06" y="412.354" fill="#000" font-size="13"> </text><text x="283.06" y="427.487" fill="#000" font-size="13" textLength="101.328">Otra anotación:</text><text x="283.06" y="442.619" fill="#000" font-size="13" textLength="86.423">source = "ui"</text><text x="283.06" y="457.752" fill="#000" font-size="13" textLength="94.612">label = "Page"</text></g><g class="entity" data-qualified-name="GMN27" id="ent0028" data-source-line="79"><path d="M181.46,537.83 L181.46,578.096 L501.961,578.096 L501.961,547.83 L491.961,537.83 L181.46,537.83" style="stroke:#181818;stroke-width:0.5;" fill="#FEFFDD"/><path d="M491.961,537.83 L491.961,547.83 L501.961,547.83 L491.961,537.83" style="stroke:#181818;stroke-width:1;" fill="#FEFFDD"/><text x="187.46" y="554.897" fill="#000" font-size="13" textLength="150.325">Diagrama simplificado:</text><text x="187.46" y="570.03" fill="#000" font-size="13" textLength="299.501">se omiten ENamedElement y ETypedElement.</text></g><!--link EAnnotation to GMN10--><g class="link" data-entity-1="ent0002" data-entity-2="ent0011" id="lnk12" data-source-line="47" data-link-type="association"><path d="M242.68,386.11 C254.09,386.11 265.63,386.11 276.96,386.11" style="stroke:#181818;stroke-width:1;stroke-dasharray:7,7;" fill="none" id="EAnnotation-GMN10"/></g><!--reverse link EModelElement to EAnnotation--><g class="link" data-entity-1="ent0001" data-entity-2="ent0002" id="lnk13" data-source-line="59" data-link-type="composition"><path d="M524.26,534.11 C388.91,534.11 201.78,534.11 201.78,534.11 C201.78,534.11 201.78,469.96 201.78,425.85" style="stroke:#181818;stroke-width:1;" fill="none" id="EModelElement-backto-EAnnotation" codeLine="59"/><polygon points="536.26,534.11,530.26,530.11,524.26,534.11,530.26,538.11,536.26,534.11" fill="#181818" style="stroke:#181818;stroke-width:1;stroke-linejoin:miter;stroke-miterlimit:10;"/><text x="227.89" y="530.177" fill="#000" font-size="13" textLength="86.062">eAnnotations</text><text x="520.563" y="529.271" fill="#000" font-size="13">1</text><text x="189.233" y="445.61" fill="#000" font-size="13" textLength="23.036">0..*</text></g><!--link EAnnotation to EModelElement--><g class="link" data-entity-1="ent0002" data-entity-2="ent0001" id="lnk17" data-source-line="64" data-link-type="extension"><path d="M222.1,425.91 C222.1,468.79 222.1,530.11 222.1,530.11 C222.1,530.11 389.07,530.11 518.22,530.11" style="stroke:#181818;stroke-width:1;" fill="none" id="EAnnotation-to-EModelElement" codeLine="64"/><polygon points="536.22,530.11,518.22,524.11,518.22,536.11,536.22,530.11" fill="none" style="stroke:#181818;stroke-width:1;stroke-linejoin:miter;stroke-miterlimit:10;"/></g><!--link EPackage to EModelElement--><g class="link" data-entity-1="ent0003" data-entity-2="ent0001" id="lnk14" data-source-line="61" data-link-type="extension"><path d="M877.05,239.11 C808.99,239.11 713.25,239.11 713.25,239.11 C713.25,239.11 713.25,426.07 713.25,507.34" style="stroke:#181818;stroke-width:1;" fill="none" id="EPackage-to-EModelElement" codeLine="61"/><polygon points="713.25,525.34,719.25,507.34,707.25,507.34,713.25,525.34" fill="none" style="stroke:#181818;stroke-width:1;stroke-linejoin:miter;stroke-miterlimit:10;"/></g><!--link EClassifier to EModelElement--><g class="link" data-entity-1="ent0004" data-entity-2="ent0001" id="lnk15" data-source-line="62" data-link-type="extension"><path d="M755.75,417.65 C755.75,448.55 755.75,476.75 755.75,507.6" style="stroke:#181818;stroke-width:1;" fill="none" id="EClassifier-to-EModelElement" codeLine="62"/><polygon points="755.75,525.6,761.75,507.6,749.75,507.6,755.75,525.6" fill="none" style="stroke:#181818;stroke-width:1;stroke-linejoin:miter;stroke-miterlimit:10;"/></g><!--link EStructuralFeature to EModelElement--><g class="link" data-entity-1="ent0007" data-entity-2="ent0001" id="lnk16" data-source-line="63" data-link-type="extension"><path d="M616.21,425.67 C616.21,456.09 616.21,479.22 616.21,507.49" style="stroke:#181818;stroke-width:1;" fill="none" id="EStructuralFeature-to-EModelElement" codeLine="63"/><polygon points="616.21,525.49,622.21,507.49,610.21,507.49,616.21,525.49" fill="none" style="stroke:#181818;stroke-width:1;stroke-linejoin:miter;stroke-miterlimit:10;"/></g><!--reverse link EPackage to EClassifier--><g class="link" data-entity-1="ent0003" data-entity-2="ent0004" id="lnk18" data-source-line="66" data-link-type="composition"><path d="M865.16,241.11 C834.1,241.11 815.86,241.11 815.86,241.11 C815.86,241.11 815.86,310.36 815.86,352.82" style="stroke:#181818;stroke-width:1;" fill="none" id="EPackage-backto-EClassifier" codeLine="66"/><polygon points="877.16,241.11,871.16,237.11,865.16,241.11,871.16,245.11,877.16,241.11" fill="#181818" style="stroke:#181818;stroke-width:1;stroke-linejoin:miter;stroke-miterlimit:10;"/><text x="740.86" y="262.387" fill="#000" font-size="13" textLength="74.115">eClassifiers</text><text x="861.458" y="242.294" fill="#000" font-size="13">1</text><text x="796.091" y="341.686" fill="#000" font-size="13" textLength="23.036">0..*</text></g><!--link EClass to EClassifier--><g class="link" data-entity-1="ent0005" data-entity-2="ent0004" id="lnk19" data-source-line="67" data-link-type="extension"><path d="M611.42,229.11 C681.32,229.11 761.56,229.11 761.56,229.11 C761.56,229.11 761.56,289.11 761.56,334.82" style="stroke:#181818;stroke-width:1;" fill="none" id="EClass-to-EClassifier" codeLine="67"/><polygon points="761.56,352.82,767.56,334.82,755.56,334.82,761.56,352.82" fill="none" style="stroke:#181818;stroke-width:1;stroke-linejoin:miter;stroke-miterlimit:10;"/></g><!--link EDataType to EClassifier--><g class="link" data-entity-1="ent0006" data-entity-2="ent0004" id="lnk20" data-source-line="68" data-link-type="extension"><path d="M788.71,220.38 C788.71,254.09 788.71,297.1 788.71,334.68" style="stroke:#181818;stroke-width:1;" fill="none" id="EDataType-to-EClassifier" codeLine="68"/><polygon points="788.71,352.68,794.71,334.68,782.71,334.68,788.71,352.68" fill="none" style="stroke:#181818;stroke-width:1;stroke-linejoin:miter;stroke-miterlimit:10;"/></g><!--reverse link EClass to EStructuralFeature--><g class="link" data-entity-1="ent0005" data-entity-2="ent0007" id="lnk21" data-source-line="70" data-link-type="composition"><path d="M558.13,248.61 C558.13,280.52 558.13,312.76 558.13,344.65" style="stroke:#181818;stroke-width:1;" fill="none" id="EClass-backto-EStructuralFeature" codeLine="70"/><polygon points="558.13,236.61,554.13,242.61,558.13,248.61,562.13,242.61,558.13,236.61" fill="#181818" style="stroke:#181818;stroke-width:1;stroke-linejoin:miter;stroke-miterlimit:10;"/><text x="428.13" y="286.697" fill="#000" font-size="13" textLength="129.232">eStructuralFeatures</text><text x="557.231" y="256.349" fill="#000" font-size="13">1</text><text x="524.024" y="333.778" fill="#000" font-size="13" textLength="23.036">0..*</text></g><!--link EAttribute to EStructuralFeature--><g class="link" data-entity-1="ent0008" data-entity-2="ent0007" id="lnk22" data-source-line="71" data-link-type="extension"><path d="M663.43,79.69 C663.43,141.63 663.43,258.7 663.43,326.55" style="stroke:#181818;stroke-width:1;" fill="none" id="EAttribute-to-EStructuralFeature" codeLine="71"/><polygon points="663.43,344.55,669.43,326.55,657.43,326.55,663.43,344.55" fill="none" style="stroke:#181818;stroke-width:1;stroke-linejoin:miter;stroke-miterlimit:10;"/></g><!--link EReference to EStructuralFeature--><g class="link" data-entity-1="ent0009" data-entity-2="ent0007" id="lnk23" data-source-line="72" data-link-type="extension"><path d="M549.88,84.11 C588.48,84.11 624.42,84.11 624.42,84.11 C624.42,84.11 624.42,244.38 624.42,326.55" style="stroke:#181818;stroke-width:1;" fill="none" id="EReference-to-EStructuralFeature" codeLine="72"/><polygon points="624.42,344.55,630.42,326.55,618.42,326.55,624.42,344.55" fill="none" style="stroke:#181818;stroke-width:1;stroke-linejoin:miter;stroke-miterlimit:10;"/></g><!--link EAttribute to EDataType--><g class="link" data-entity-1="ent0008" data-entity-2="ent0006" id="lnk24" data-source-line="74" data-link-type="dependency"><path d="M786.37,79.94 C786.37,107.65 786.37,141.78 786.37,166.78" style="stroke:#181818;stroke-width:1;" fill="none" id="EAttribute-to-EDataType" codeLine="74"/><polygon points="786.37,171.78,790.37,162.78,786.37,166.78,782.37,162.78,786.37,171.78" fill="#181818" style="stroke:#181818;stroke-width:1;stroke-linejoin:miter;stroke-miterlimit:10;"/><text x="688.37" y="121.927" fill="#000" font-size="13" textLength="97.513">eAttributeType</text></g><!--link EReference to EClass--><g class="link" data-entity-1="ent0009" data-entity-2="ent0005" id="lnk25" data-source-line="75" data-link-type="dependency"><path d="M478.95,87.94 C478.95,108.93 478.95,129.46 478.95,150.44" style="stroke:#181818;stroke-width:1;" fill="none" id="EReference-to-EClass" codeLine="75"/><polygon points="478.95,155.44,482.95,146.44,478.95,150.44,474.95,146.44,478.95,155.44" fill="#181818" style="stroke:#181818;stroke-width:1;stroke-linejoin:miter;stroke-miterlimit:10;"/><text x="371.95" y="117.757" fill="#000" font-size="13" textLength="106.215">eReferenceType</text></g><!--link EClass to EClass--><g class="link" data-entity-1="ent0005" data-entity-2="ent0005" id="lnk26" data-source-line="76" data-link-type="dependency"><path d="M580.31,155.27 C580.31,153.29 580.31,152.11 580.31,152.11 C580.31,152.11 617.75,152.11 617.75,152.11 C617.75,152.11 617.75,243.11 617.75,243.11 C617.75,243.11 584.6,243.11 584.6,243.11 C584.6,243.11 584.6,245.52 584.6,241.57" style="stroke:#181818;stroke-width:1;" fill="none" id="EClass-to-EClass" codeLine="76"/><polygon points="584.6,236.57,580.6,245.57,584.6,241.57,588.6,245.57,584.6,236.57" fill="#181818" style="stroke:#181818;stroke-width:1;stroke-linejoin:miter;stroke-miterlimit:10;"/><text x="623.75" y="188.227" fill="#000" font-size="13" textLength="84.741">eSuperTypes</text></g><!--link GMN10 to GMN27--><g class="link" data-entity-1="ent0011" data-entity-2="ent0028" id="lnk29" data-source-line="79" data-link-type="association"><path d="M386.71,466.24 C386.71,492.55 386.71,519.52 386.71,537.34" style="stroke:#181818;stroke-width:1;stroke-dasharray:7,7;" fill="none" id="GMN10-GMN27"/></g><?plantuml-src TLHDZzCm4BtxLrWvhcXKzi2XWahjRf1wMAYsS48S9kaqDNNio7Oe1VPNyHFuOuppwJJb5FdDcpVZcHVRar0b62Xu2jafDxfI-mSjjU7det38R1_F95YxSiw8j7AuoRJQYP_8vm757c6lpqBb_03IXibIA7IN4hasxgWPWzGw0vbhL7dofFSe4ua5AiT_CSvnfPHsu8HMbYzuCXpvbtaSttrbBuoroK7CfrfTcGnzqewQLJb1UtGWf1TwWl9jYx_g2Cj0QqjJW1nh8GN5M4RPpy-RAsHhy21-1E3Bz7OF_YCE0iqjtQ5upQiflGBHrbfB1EM7igjAD9zeZlLC6lfa78_Wm7EcVL31AdEL0VaUWRxDDQK-erdxnNlHZNA4LMLvXGNZxZpGBgex-fgUtTSVKfxnW0PLrgIGTMWTgjxr-7uzhzEgh-Y5QCF8ZSYFZkj3k79AIxvXKKhDQnFThwNEJlB21YUyur7QW55TNHBimVityne0Xxas5mzjQVVMWuwQSgBqs8eMzbtaa4ha9SNZE8wy-aUQBGVVHoR-_b6BKS5AU1K9ASfEDs98u_GNOMni-EXrnEzcCnxvLKOZGoz6Vm8bTWQTpNuln_yD2trsApnT_orMKFn6U6ZWkkcWE3Kzd6pRLwis15Zlb6ceoxakChq2rPg0L78mQQCzuR30bF-ZZ6MMWxNhjOI-7wjrT_6qaQM7KOIKuQzkVPvgvtH1_daKaDFp2TmASZYD9gC7jZOQlQG5lS-A9n_eDTbtJhhmn0jrvxYtt3y0?></g></svg>